<svg width="445" height="735" viewBox="0 0 445 735" fill="none" xmlns="http://www.w3.org/2000/svg">
<path fill-rule="evenodd" clip-rule="evenodd" d="M206.498 437.164C205.848 443.935 207.177 450.4 210.34 455.867L211.369 457.645L209.41 458.33C205.845 459.576 201.88 460.181 197.289 460.181C192.565 460.181 187.651 459.524 183.703 458.995L181.176 458.657L182.418 456.464C183.416 454.701 183.601 452.564 183.797 450.302C183.849 449.694 183.904 449.066 183.975 448.445C187.716 415.037 192.444 381.193 197.017 348.463C198.221 339.851 199.465 330.945 200.672 322.185L204.134 322.318C205.066 338.533 205.97 355.022 206.844 370.969C207.228 377.981 207.613 384.993 208 392.005C209.382 409.731 208.905 424.084 206.498 437.164ZM205.085 637.498C210.17 637.498 215.265 636.969 220.227 635.925C235.757 632.668 249.866 624.984 261.871 618.037C262.484 617.69 263.106 617.342 263.744 616.985C268.444 614.358 274.293 611.089 277.959 607.101C281.98 602.726 282.672 598.366 280.137 593.381L279.735 592.593L280.155 591.813C282.78 586.93 282.585 580.889 279.68 577.122L277.239 573.957L281.253 574.383C285.3 574.812 289.379 575.393 293.324 575.956C297.702 576.58 302.228 577.225 306.687 577.656L307.926 577.777L308.21 578.969C308.369 579.633 308.565 580.037 309.94 580.037C311.133 580.037 312.736 579.688 314.432 579.318C316.537 578.86 318.923 578.341 321.224 578.341C322.236 578.341 323.147 578.437 324.008 578.636L324.509 578.751L324.865 579.116C325.093 579.349 325.481 579.494 325.878 579.494C326.178 579.494 326.456 579.411 326.642 579.265L327.204 578.826L327.918 578.904C340.346 580.268 351.063 582.661 360.679 586.219L360.723 586.235L360.931 586.325C364.409 587.825 368.004 589.375 371.278 589.375C373.672 589.375 375.615 588.562 377.395 586.815L377.898 586.322L378.608 586.315C385.807 586.249 389.097 577.86 389.552 572.238L389.609 571.53L390.158 571.07C402.705 560.55 410.112 546.101 412.803 526.897C415.255 509.406 413.373 490.963 411.208 475.229C406.202 434.455 400.98 397.902 387.706 363.234L387.085 361.614L388.738 361.02C394.471 358.962 398.853 356.506 402.133 353.512L402.36 353.305L402.646 353.187C407.348 351.257 409.651 344.132 410.245 341.995L410.292 341.823L410.375 341.664C411.335 339.825 411.556 337.267 410.982 334.646L410.921 334.364L410.956 334.077C411.266 331.588 410.238 328.987 409.149 326.232C408.652 324.973 408.138 323.673 407.762 322.377C406.47 318.675 405.18 314.907 403.932 311.262C401.132 303.085 398.238 294.63 395.154 286.406L394.732 285.281L395.661 284.505C397.247 283.182 396.718 281.623 394.43 277.897C393.89 277.017 393.379 276.185 392.99 275.364C390.058 270.302 386.916 265.443 383.649 260.92L383.581 260.827L383.528 260.726C366.764 229.444 337.027 212.216 299.797 212.216L299.038 212.217L298.618 211.965C291.64 207.772 286.659 200.579 283.39 189.973L283.286 189.635L283.326 189.284C283.438 188.306 283.561 187.025 283.519 185.781C283.412 182.632 282.177 179.821 280.129 178.07C276.245 174.748 270.347 174.47 264.64 174.47L263.82 174.471C256.523 174.492 251.371 175.758 247.607 178.456C243.234 181.59 240.817 186.649 240.218 193.923C240.039 196.1 240.045 198.354 240.05 200.535L240.052 201.143L239.978 201.385C239.454 203.114 238.839 204.775 238.153 206.323L237.446 207.915L235.839 207.197C234.799 206.733 233.482 206.494 231.81 206.467C231.328 206.456 230.857 206.451 230.383 206.451C226.501 206.451 222.348 206.805 218.331 207.148C215.305 207.406 212.175 207.673 209.146 207.791L209.105 207.793C209.105 207.793 208.687 207.79 208.499 207.79C201.137 207.79 195.799 208.947 191.703 211.431C187.292 214.105 184.121 218.398 181.723 224.939C168.859 262.433 163.571 302.82 158.906 338.451C156.26 357.084 155.456 376.186 154.677 394.659C153.855 414.157 153.006 434.32 149.998 454.029L149.761 455.587L148.163 455.484C141.134 455.03 133.538 454.054 125.496 453.02C113.278 451.45 100.643 449.826 88.4289 449.826C71.3512 449.826 58.4027 453.184 48.8497 460.089C42.1898 466.36 38.7444 474.849 38.8859 484.648C39.0861 498.491 46.4147 513.797 57.5562 523.639L57.5983 523.678C71.6813 536.971 97.3881 548.501 134.004 557.947C167.675 566.633 202.504 571.353 220.268 573.394L224.664 573.899L221.096 576.477C219.651 577.521 218.333 578.439 217.067 579.286L216.249 579.832L215.354 579.421C212.801 578.252 211.18 578.006 210.269 578.006C209.46 578.006 208.485 578.182 208.432 579.018C208.396 579.565 208.786 580.378 209.609 580.481L213.979 581.025L210.411 583.568C208.028 585.267 204.472 587.313 200.354 589.684C186.882 597.44 166.524 609.16 170.025 619.452L170.255 620.128L169.929 620.766C168.989 622.608 168.908 624.319 169.685 625.995C171.347 629.587 176.547 632.313 180.963 633.422L181.038 633.441L181.112 633.467C188.796 636.142 196.862 637.498 205.085 637.498Z" fill="white"/>
<path fill-rule="evenodd" clip-rule="evenodd" d="M219.868 571.378C219.337 570.838 219.113 570.131 219.609 569.3C221.527 566.853 225.504 568.526 227.979 569.091C228.913 568.315 229.841 567.535 230.734 566.713C230.424 564.789 232.739 563.509 233.691 562.025C234.625 560.931 235.504 559.689 236.624 558.773C239.353 556.646 243.136 558.085 246.304 557.988C248.743 554.887 251.256 551.884 253.576 548.68C250.902 544.189 250.713 538.927 251.601 533.922C210.573 518.368 175.06 488.917 130.688 482.111C129.162 481.857 128.306 480.004 128.686 478.645C131.782 471.264 176.261 490.308 182.91 493.757C202.52 503.139 220.889 514.833 239.948 525.151C243.922 527.261 248.294 528.395 252.639 529.491C259.317 507.592 270.614 487.518 279.275 466.405C278.713 465.431 278.234 464.409 277.828 463.358C278.115 474.97 266.813 474.807 265.252 463.792C265.896 469.534 261.551 481.831 255.279 473.762C253.808 471.735 253.286 469.14 253.037 466.522C252.715 468.332 252.349 470.134 251.943 471.929C250.333 475.487 245.938 471.161 244.917 469.306C244.328 469.2 243.777 468.932 243.374 468.603C232.284 470.142 219.221 470.054 211.084 461.306C197.281 466.596 182.005 461.856 168.046 459.744C139.64 456.481 111.121 451.507 82.4601 451.887C69.6642 452.629 54.5681 454.693 46.4743 465.603C36.0919 481.328 41.9605 502.568 53.4133 516.181C80.9633 551.033 175.53 566.187 219.868 571.378ZM219.093 583.932C218.592 583.798 218.087 583.675 217.585 583.558C209.543 590.248 171.672 607.618 174.553 617.993C175.571 619.284 178.007 619.578 179.548 619.995C182.232 620.72 184.941 621.348 187.676 621.845C196.518 623.452 205.676 623.732 214.507 621.899C217.756 621.405 220.689 620.021 223.648 618.682C233.209 614.479 243.739 609.836 253.255 605.668C265.343 600.88 286.545 591.444 277.825 575.521C269.563 584.806 259.076 583.995 253.794 572.455C251.972 568.951 250.382 564.229 246.104 562.813C243.847 561.288 240.96 560.971 239.075 562.67C238.938 562.459 238.816 562.162 238.75 561.899C236.624 564.923 234.79 568.106 232.298 570.87C233.154 570.916 242.06 577.502 239.431 577.505C236.269 575.878 233.128 574.522 229.713 573.645C227.239 576.132 224.518 578.445 221.698 580.583C224.437 582.39 226.897 584.603 228.875 587.004C229.046 587.216 228.837 587.49 228.582 587.375C225.51 586.008 222.351 584.806 219.093 583.932ZM178.33 628.797C209.088 642.601 241.651 627.23 267.881 610.841C273.935 607.464 281.898 602.676 280.674 594.724C276.215 601.243 268.864 604.954 261.809 608.172C249.956 613.525 238.025 618.707 226.142 623.995C225.02 627.715 219.653 627.857 216.41 628.683C201.972 631.481 186.452 630.09 172.864 624.512C173.651 626.838 176.223 627.906 178.33 628.797ZM301.05 575.044C301.81 575.141 302.57 575.229 303.33 575.315C303.251 574.31 303.858 573.305 304.832 572.994C304.394 570.864 304.232 568.663 304.467 566.502C303.196 569.782 299.094 568.786 296.489 567.84C292.768 566.83 289.069 565.742 285.391 564.583C283.94 567.275 282.403 569.928 280.514 572.366C287.39 572.977 294.201 574.19 301.05 575.044ZM304.075 564.726C304.258 565.111 304.519 565.519 304.525 565.982C304.711 564.386 305.073 562.81 305.624 561.299C305.108 562.441 304.592 563.584 304.075 564.726ZM308.415 556.169C311.798 551.764 318.049 548.163 323.828 549.391C324.199 549.471 324.208 550.068 323.828 550.142C316.065 551.196 309.248 557.348 308.978 565.303C308.366 568.903 310.872 572.438 310.028 575.892C310.196 575.904 310.365 575.912 310.53 575.924C310.591 576.155 310.646 576.36 310.719 576.54C309.88 576.68 309.633 578.028 310.623 578.268C311.209 578.41 311.821 578.485 312.444 578.516C315.609 577.662 318.948 577.465 321.974 576.203C324.968 574.882 324.219 571.167 325.275 568.595C326.05 565.628 326.941 562.673 328.063 559.827C328.144 559.598 328.455 559.65 328.481 559.881C329.273 565.56 329.247 571.335 329.055 577.06C330.094 577.166 331.126 577.283 332.162 577.411C332.095 575.812 336.896 556.332 339.426 561.331C338.152 566.827 337.999 572.569 337.862 578.225C345.373 579.461 352.773 581.303 359.973 583.809C365.047 585.345 371.081 589.891 376.006 585.782C379.821 582.63 381.106 577.131 380.746 572.452C375.786 544.766 336.606 541.531 313.477 543.578C311.293 548.615 309.068 553.634 306.814 558.642C307.281 557.779 307.815 556.952 308.415 556.169ZM387.3 571.912C387.723 565.625 386.664 557.799 382.003 553.114C371.333 544.101 356.393 541.265 343.061 538.002C336.85 536.777 330.555 535.964 324.234 535.558C321.991 535.381 319.143 535.889 317.559 534.056C316.744 535.986 315.917 537.914 315.09 539.841C341.634 536.366 397.012 548.437 381.504 584.768C384.788 581.214 386.963 576.886 387.3 571.912ZM255.427 551.13C254.206 554.179 252.712 557.083 250.759 559.738C252.979 561.188 254.789 563.332 256.065 565.637C264.246 587.021 272.995 575.567 283.865 564.092C274.666 560.623 262.482 558.025 255.427 551.13ZM391.593 567.561C412.865 546.565 416.993 511.587 409.135 484.092C408.436 473.897 404.868 464.181 401.671 454.528C391.491 425.246 378.104 397.074 362.047 370.476C342.127 375.944 322.241 381.557 302.274 386.845C299.524 387.441 296.771 388.621 293.948 388.792C292.939 389.434 291.926 390.142 290.876 390.764C292.405 398.248 290.995 405.888 290.638 413.417C290.314 419.344 290.955 425.149 291.741 431.013C292.62 439.544 296.237 467.292 288.988 472.372C286.531 473.557 284.335 470.048 283.276 471.013C282.321 470.348 281.431 469.483 280.706 468.529C277.906 477.574 273.332 485.965 270.506 495.019C266.747 508.323 254.4 529.859 257.142 542.55C259.262 550.387 268.539 552.077 275.235 554.639C282.971 557.328 290.795 559.798 298.746 561.802C302.628 553.571 306.338 545.262 309.979 536.923C326.618 498.445 341.355 459.164 354.525 419.416C354.772 418.533 357.8 408.975 358.354 411.641C358.401 411.367 358.746 410.659 358.877 411.264C356.643 420.598 354.378 429.928 351.926 439.21C357.948 438.368 364.423 438.039 369.935 440.989C370.219 441.14 370.01 441.514 369.729 441.468C363.202 440.338 356.907 442.473 350.638 444.007C341.834 473.951 330.474 503.135 318.449 531.955C322.168 530.77 326.485 532.081 330.366 532.175C342.591 533.437 354.676 536.109 366.225 540.266C380.741 544.969 391.004 551.101 391.593 567.561ZM403.304 349.046C406.878 345.2 409.686 340.289 409.143 335.079C406.997 332.218 406.286 328.486 405.036 325.18C400.148 311.344 395.611 297.403 390.29 283.716C378.974 287.193 367.841 291.364 357.339 296.843C355.407 297.828 353.495 298.851 351.607 299.91C349.628 301.018 347.47 302.942 345.097 302.391C347.691 306.06 353.031 309.877 353.933 314.116C354.128 315.459 353.176 316.703 351.714 316.404C328.829 332.646 305.195 348.546 283.563 366.639C267.364 379.453 254.928 389.845 249.373 410.636C245.628 424.104 245.616 438.179 246.167 452.027C246.275 454.719 246.278 457.474 246.495 460.184C246.17 462.211 246.788 466.336 249.068 466.411C249.016 466.902 248.854 467.356 248.595 467.755C248.668 467.852 248.743 467.944 248.822 468.038C248.935 467.484 249.045 466.933 249.149 466.379C250.925 458.522 251.163 449.406 250.867 441.04C250.742 438.642 254.423 438.699 254.629 441.04C255.183 447.364 255.737 453.688 256.291 460.009C256.956 464.106 255.909 469.466 259.187 472.58C262.52 469.503 261.417 463.433 261.255 459.461C260.994 452.983 260.712 446.508 260.472 440.029C260.396 437.977 263.799 437.448 264.185 439.535C265.279 445.486 266.462 451.418 267.736 457.334C268.504 459.621 269.032 469.882 272.873 468.101C275.162 466.539 273.511 457.383 273.813 454.351C273.671 448.349 273.587 442.356 273.146 436.369C272.966 433.954 276.902 433.44 277.442 435.798C278.318 439.615 279.156 443.433 279.917 447.276C281.585 453.754 280.978 462.536 287.001 466.842C289.359 450.014 285.965 433.303 285.489 416.535C285.773 411.102 286.708 405.723 287.531 400.355C288.442 394.419 288.973 387.958 286.841 382.234C287.424 379.67 289.716 386.605 289.93 387.182C291.657 383.784 295.86 383.521 299.184 382.462C306.573 380.072 314.141 378.271 321.617 376.147C341.442 370.645 361.29 365.229 381.144 359.824C389.075 357.631 397.424 355.036 403.304 349.046ZM204.78 438.556C207.516 423.741 207.44 408.729 206.271 393.751C204.986 370.522 203.739 347.287 202.404 324.061C196.611 366.099 190.435 408.089 185.713 450.262C185.376 453.197 185.428 456.303 183.946 458.922C192.138 460.018 200.87 461.123 208.836 458.339C205.34 452.301 204.107 445.426 204.78 438.556ZM163.387 334.205C157.193 374.048 160.727 414.591 154.719 454.388C163.053 455.321 171.324 456.703 179.571 458.222C178.669 453.306 180.38 448.229 180.676 443.279C185.156 407.966 190.101 372.678 196.655 337.674C198.262 329.297 199.886 320.955 201.749 312.624C201.467 307.579 201.221 302.534 201.058 297.486C191.964 291.773 181.709 288.075 171.103 286.211C168.237 302.165 165.374 318.108 163.387 334.205ZM235.083 209.003C235.446 208.384 235.791 207.75 236.122 207.108C235.002 207.15 233.911 207.19 232.809 207.373C232.858 209.146 232.759 210.933 232.739 212.721C233.291 211.413 234.369 210.22 235.083 209.003ZM48.0262 458.685C74.4797 439.464 117.93 451.71 148.575 453.685C154.417 415.407 152.033 376.504 157.478 338.162C162.493 299.858 167.782 261.021 180.378 224.321C185.576 210.131 194.569 205.917 209.375 206.031C216.888 205.737 224.834 204.535 232.136 204.706C233.737 204.732 235.411 204.944 236.855 205.589C238.886 201.015 239.988 196.104 240.545 191.156C240.58 190.842 240.98 190.785 241.099 191.085C242.817 195.393 243 200.096 242.066 204.607C241.389 207.839 237.366 220.558 232.693 215.582C232.322 226.017 234.616 238.479 244.847 243.896C262.726 251.684 287.439 244.592 297.795 228.061C299.796 224.758 301.523 221.243 303.739 218.071C288.297 213.703 279.63 195.216 283.267 181.138C285.515 192.087 289.615 204.321 299.823 210.454C336.995 210.371 367.901 227.288 385.365 259.87C388.782 264.601 391.941 269.517 394.836 274.519C396.394 277.866 400.957 282.519 397.084 285.751C401.558 297.68 405.526 309.774 409.721 321.797C410.873 325.803 413.507 330.005 412.981 334.217C413.55 336.812 413.524 339.881 412.221 342.377C410.986 346.825 408.213 352.809 403.614 354.696C399.713 358.257 394.778 360.709 389.632 362.556C403.356 398.394 408.581 437.043 413.231 474.907C417.788 508.032 420.141 548.326 391.584 572.266C391.03 579.116 386.963 587.844 378.922 587.918C373.352 593.382 366.564 590.384 360.365 587.712C349.901 583.84 338.927 581.694 328.022 580.497C326.853 581.411 324.95 581.259 323.909 580.195C317.303 578.673 308.148 584.834 306.814 579.253C298.297 578.427 289.872 576.88 281.364 575.978C284.95 580.626 284.691 587.481 281.991 592.503C288.869 606.022 272.847 613.851 263.051 619.398C249.826 627.05 236.014 634.31 220.889 637.482C207.591 640.277 193.661 639.43 180.83 634.964C174.088 633.271 164.672 627.712 168.673 619.881C163.602 604.977 199.213 589.534 209.688 582.07C205.407 581.537 205.25 572.657 216.387 577.759C217.733 576.86 219.055 575.932 220.364 574.987C175.319 569.814 89.2917 555.581 56.6913 524.814C38.7813 508.994 28.448 476.994 48.0262 458.685Z" fill="black"/>
<path fill-rule="evenodd" clip-rule="evenodd" d="M189.686 119.296C190.532 111.873 189.437 96.3584 189.364 95.4159C188.9 89.457 191.696 65.9266 196.983 68.0947C205.851 61.0857 217.662 59.538 228.707 58.7987C251.648 57.2628 276.053 60.7887 293.768 76.2028C302.528 84.2077 311.057 95.8503 310.372 107.973C318.331 119.464 329.552 135.226 319.635 148.659C316.264 152.951 310.906 154.549 306.672 157.8C298.154 164.659 292.81 174.503 284.211 181.322C261.43 201.76 222.747 206.03 200.365 182.783C183.057 165.947 185.855 140.759 188.9 119.296C190.947 104.865 188.035 133.776 189.686 119.296Z" fill="white"/>
<path fill-rule="evenodd" clip-rule="evenodd" d="M259.353 27.322C253.218 26.0859 246.917 25.3168 240.652 25.5483L240.169 25.567C235.455 25.7551 229.484 26.1713 225.372 28.9082C225.135 28.6712 224.755 28.5495 224.41 28.7139C219.522 31.0429 214.147 32.7268 209.001 34.4C203.879 36.0651 198.565 37.1642 193.197 37.6073C191.177 37.774 189.448 39.9516 190.727 41.9046C191.031 42.37 191.328 42.8401 191.623 43.3114C191.129 43.26 190.636 43.207 190.142 43.1572C188.517 42.994 186.894 44.7249 186.991 46.304C187.051 47.2972 187.158 48.2786 187.317 49.2483C186.698 49.2353 186.083 49.3279 185.489 49.5787C182.48 50.8474 182.689 54.4258 182.915 57.1484C183.227 60.9266 184.642 64.9285 187.27 67.7562C185.308 69.7909 183.919 72.2207 183.09 75.1066C182.489 77.2138 182.155 79.4584 182.32 81.6521L182.372 82.3088C182.577 84.6893 182.982 87.3248 184.698 89.0373C185.578 89.9203 186.663 90.2421 187.697 90.14C187.072 95.626 186.671 101.143 186.294 106.641L186.117 109.269C185.275 121.975 184.642 134.764 184.808 147.492C184.961 159.386 187.315 170.931 194.622 180.588C201.277 189.382 210.831 195.865 221.64 198.329C227.465 199.659 233.412 199.754 239.308 198.906C242.166 198.494 245.042 197.862 247.755 196.865C250.757 195.759 252.915 194.13 254.935 191.689C255.891 190.532 255.431 188.067 253.528 188.299C250.65 188.647 248.024 189.067 245.265 189.917L244.87 190.041C242.122 190.92 239.276 191.576 236.403 191.854C230.519 192.423 224.545 191.85 218.909 190.069C209.731 187.165 201.827 180.694 196.76 172.563C190.747 162.925 190.067 151.985 190.154 140.903C190.247 128.743 190.643 116.575 191.29 104.427L191.4 102.403C191.742 96.1518 192.072 89.8967 192.362 83.6416C192.453 81.6795 192.59 79.7017 192.838 77.7436C195.106 76.4172 197.138 74.5886 198.462 72.3322C201.123 73.4309 203.922 74.2236 206.497 74.8554C212.461 76.3199 218.653 76.6754 224.723 75.7584C226.361 76.4337 228.031 77.0274 229.726 77.5384C230.185 77.7412 230.643 77.9406 231.101 78.136C235.189 79.8823 239.336 81.3617 243.651 82.4447L244.711 82.7087C246.982 83.2676 249.449 83.818 251.866 83.9909C252.262 84.1439 252.691 84.2734 253.159 84.3872C255.36 84.9209 257.644 85.0896 259.899 84.9013C262.097 84.7168 263.685 82.4997 262.474 80.4238C261.59 78.9091 260.697 77.3983 259.797 75.8914C262.93 77.1942 266.165 78.2773 269.427 79.1955C272.721 80.1216 276.061 80.9025 279.407 81.6207C281.195 82.0013 282.991 82.3388 284.775 82.7194C286.053 82.9902 288.014 83.1315 289.056 83.9712C290.207 84.8934 290.533 87.0439 290.97 88.3702C291.544 90.0929 292.082 91.8235 292.574 93.5737C293.552 97.0662 294.354 100.61 294.975 104.189C295.596 107.771 296.013 111.389 296.245 115.019C296.476 118.645 296.375 122.295 296.748 125.905C296.948 127.82 299.008 128.805 300.529 127.467C300.707 127.31 300.887 127.151 301.065 126.991L301.33 126.749C302.632 125.571 303.893 124.323 304.935 122.919C305.123 122.66 305.304 122.389 305.473 122.114C305.501 122.114 305.524 122.106 305.552 122.087L305.84 121.87C309.019 119.507 314.33 116.428 317.43 120.352C318.417 121.602 318.923 123.194 319.343 124.73L320.079 127.479C320.556 129.273 321.004 131.077 321.266 132.913C321.86 137.026 321.561 141.766 318.727 145.063C317.595 146.381 316.034 147.323 314.294 147.57C313.322 147.704 312.363 147.539 311.4 147.417C310.422 147.295 309.479 147.492 308.5 147.397C306.943 147.244 306.263 149.104 306.845 150.274C307.159 150.902 307.529 151.443 307.949 151.902C307.612 152.193 307.289 152.507 306.979 152.836C306.059 153.131 305.234 153.762 304.616 154.598C304.117 155.273 303.858 156.007 303.814 156.78C303.76 156.972 303.713 157.169 303.669 157.369L302.826 158.735C302.64 159.035 302.456 159.331 302.27 159.621C300.124 162.996 297.742 165.853 294.782 168.545C291.933 171.135 288.84 173.454 286.163 176.232L285.847 176.562C283.352 179.188 280.721 182.366 281.698 186.184C281.949 187.165 283.321 187.871 284.217 187.208C287.098 185.073 288.549 181.691 290.993 179.101C293.509 176.432 296.296 174.035 298.819 171.374C301.205 168.863 303.088 166.018 304.506 162.886C305.073 163.51 305.898 163.954 307.041 164.126C309.007 164.42 310.839 163.271 311.695 161.572C312.246 161.815 312.807 162.035 313.374 162.207C316.353 163.118 318.228 159.81 317.103 157.365C316.502 156.054 315.752 154.916 314.82 153.959C317.733 153.558 320.696 152.055 322.61 150.18C327.413 145.467 328.073 138.384 326.992 132.085C326.419 128.746 325.429 125.367 324.143 122.232C323.919 121.686 323.679 121.137 323.416 120.595C323.562 120.592 323.711 120.529 323.805 120.407C324.674 119.222 325.731 118.253 326.376 116.926C326.969 115.71 327.629 114.478 328.097 113.21C329.06 110.616 329.532 107.689 329.846 104.946C330.494 99.3304 330.243 93.7502 329.382 88.1701C327.917 78.6658 324.376 69.5703 319.16 61.5894C319.444 61.4404 319.716 61.2605 319.97 61.0478L320.095 60.9388L320.298 60.7551C321.787 59.4103 321.658 56.8898 320.298 55.5277L319.869 55.0979C319.325 54.5584 318.856 54.131 317.978 53.5437C317.848 53.457 317.715 53.3753 317.581 53.2992C318.041 52.4508 318.201 51.4588 317.88 50.3643C316.764 46.5516 311.269 46.6866 307.787 48.3493C303.934 44.916 299.661 41.9356 295.03 39.5222C284.001 33.7773 271.53 29.7707 259.353 27.322ZM316.364 127.741C314.305 127.07 311.569 128.479 309.718 129.327C307.371 130.402 305.375 131.991 303.441 133.671C302.478 134.511 302.305 135.884 302.545 137.057C302.569 137.175 302.592 137.297 302.62 137.418C302.875 138.67 304.275 139.655 305.513 139.62C308.103 139.549 309.337 137.316 310.803 135.425C310.976 135.731 311.192 136.013 311.46 136.225L311.64 136.367C312.249 136.829 312.92 137.199 313.723 137.163C314.293 137.136 314.839 136.991 315.343 136.728C316.601 136.064 317.154 134.44 316.813 133.117C316.601 132.285 316.113 131.634 315.476 131.183L315.714 131.021C316.222 130.668 316.685 130.296 317.046 129.747L317.127 129.617H317.096C317.489 128.942 317.233 128.024 316.364 127.741Z" fill="black"/>
<path fill-rule="evenodd" clip-rule="evenodd" d="M192.621 132.555C197.368 137.5 205.293 138.918 211.609 136.267C227.827 129.437 219.889 108.135 207.382 102.414C205.819 102.021 203.732 101.09 201.829 100.879C201.657 100.794 201.283 101.04 200.829 100.807C187.037 102.359 183.897 123.938 192.621 132.555ZM244.93 133.821C250.254 140.939 260.153 143.135 268.241 139.826C284.219 133.484 278.552 114.594 267.62 107.188C244.528 98.4424 234.992 120.696 244.93 133.821ZM279.566 118.049C279.581 118.042 279.596 118.038 279.611 118.031C279.527 117.994 279.442 117.956 279.358 117.918C279.385 117.99 279.415 118.061 279.442 118.134C279.483 118.105 279.52 118.071 279.566 118.049ZM181.629 110.354C182.932 110.357 184.815 110.573 185.895 111.485C188.556 102.438 198.379 94.0662 206.922 100.171C213.649 102.352 218.641 107.188 221.479 113.618C226.594 110.551 234.638 111.86 239.074 115.916C241.979 106.24 249.13 102.852 257.64 102.352C266.929 100.818 276.187 109.911 279.076 117.205C281.478 116.93 285.067 116.159 287.327 117.654C301.993 113.777 327.634 111.64 330.615 113.794C332.74 114.615 333.906 119.67 330.938 119.943C328.352 119.573 331.24 116.239 328.633 115.875C314.743 115.007 301.259 117.827 287.516 119.01C286.289 120.674 282.324 121.23 280.209 120.562C283.54 132.936 276.35 141.354 265.575 143.876C248.892 147.739 234.377 132.696 238.739 117.049C233.686 114.515 227.872 114.624 222.367 115.958C231.567 150.086 177.037 148.554 185.554 112.654C179.886 115.496 178.655 110.928 181.629 110.354Z" fill="black"/>
<path fill-rule="evenodd" clip-rule="evenodd" d="M222.439 171.157C225.338 171.992 228.449 172.067 231.404 171.204C234.084 170.422 236.836 168.7 238.809 166.421C240.561 164.397 241.696 161.937 241.651 159.311C241.646 159.011 241.538 158.761 241.372 158.566C241.194 158.357 240.945 158.213 240.678 158.151C240.403 158.087 240.113 158.11 239.865 158.221C239.642 158.323 239.45 158.494 239.33 158.745C239.027 159.142 238.725 159.532 238.422 159.911C235.984 162.906 233.624 165.144 229.959 165.946C227.97 166.382 225.984 166.189 224.162 165.524C222.211 164.813 220.448 163.562 219.066 161.961C218.442 161.238 217.705 160.943 216.984 160.938C216.167 160.932 215.359 161.31 214.751 161.914C214.153 162.507 213.753 163.313 213.716 164.157C213.685 164.897 213.927 165.67 214.573 166.36C216.7 168.633 219.457 170.297 222.439 171.157ZM222.529 133.654C219.557 135.451 215.029 139.641 218.226 144.096C221.989 148.024 227.406 143.52 230.076 141.484C232.551 139.905 235.333 143.965 233.036 145.808C213.745 160.018 205.916 134.124 221.026 131.541C222.689 131.256 223.307 133.098 222.529 133.654ZM250.325 125.747C251.28 125.139 252.404 124.93 253.649 125.494C254.622 125.934 256.329 127.402 257.516 129.331C258.329 130.651 258.905 132.199 258.785 133.812C258.757 134.186 258.896 134.463 259.116 134.667C259.289 134.828 259.539 134.947 259.833 134.984C260.083 135.015 260.362 134.987 260.589 134.916C261.022 134.782 261.25 134.503 261.336 134.275C262.168 132.078 261.81 129.626 260.878 127.414C259.62 124.429 257.336 121.928 255.839 121.122C253.279 119.742 250.258 119.679 247.693 121.085C245.51 122.281 244.145 124.213 242.788 126.182C242.499 126.601 242.213 127.017 241.917 127.425C241.323 128.243 241.264 129.054 241.494 129.75C241.749 130.521 242.398 131.171 243.209 131.511C243.959 131.826 244.83 131.87 245.6 131.547C246.251 131.274 246.848 130.742 247.226 129.838C247.862 128.317 248.923 126.639 250.325 125.747ZM201.82 129.131C202.474 129.47 202.986 129.572 203.711 129.356C204.113 129.236 204.509 129.006 204.82 128.697C205.127 128.391 205.349 128.01 205.436 127.588C205.648 126.546 206.221 125.57 207.038 124.934C207.736 124.39 208.617 124.102 209.595 124.265C210.649 124.44 211.654 125.113 212.346 125.907C212.578 126.172 212.759 126.474 212.941 126.773C213.282 127.333 213.614 127.854 214.084 128.265C214.262 128.422 214.531 128.53 214.791 128.53C214.897 128.53 215.004 128.513 215.107 128.481C216.156 127.433 216.358 126.638 216.324 125.849C216.289 125.022 215.961 124.184 215.431 123.403C214.189 121.57 211.83 120.067 210.238 119.726C208.058 119.26 205.892 119.82 204.157 121.031C202.37 122.278 201.047 124.213 200.634 126.395C200.535 126.92 200.577 127.487 200.778 127.978C200.975 128.459 201.317 128.87 201.82 129.131ZM245.517 106.204C246.825 107.472 248.374 107.668 249.941 107.843C250.811 107.941 251.506 108.02 252.19 108.174C254.069 108.596 255.927 109.231 257.622 110.147C259.394 111.104 261.325 112.259 262.714 113.737C263.044 114.089 263.356 114.458 263.667 114.828C263.952 115.166 264.226 115.491 264.514 115.804C264.846 116.164 265.161 116.541 265.474 116.917C265.667 117.234 265.706 117.312 265.745 117.394C265.803 117.516 265.871 117.652 265.949 117.799C266.056 118 266.181 118.219 266.312 118.419C266.53 118.783 266.647 118.883 266.748 118.928C266.916 119.002 267.075 119.039 267.229 119.019C267.374 119 267.51 118.931 267.644 118.818C268.316 118.253 268.514 117.327 268.494 116.343C268.463 114.85 267.91 113.198 267.4 112.182C266.213 109.821 264.568 107.367 262.59 105.605C260.333 103.594 257.864 102.071 255.027 101.022C253.265 100.37 251.224 99.7714 249.304 99.847C247.921 99.9015 246.602 100.31 245.512 101.331C244.843 101.958 244.522 102.849 244.522 103.74C244.522 104.648 244.855 105.562 245.517 106.204ZM199.159 117.818C199.242 117.953 199.357 118.047 199.486 118.103C199.62 118.162 199.77 118.179 199.914 118.155C200.057 118.131 200.193 118.066 200.301 117.967C200.405 117.873 200.484 117.747 200.519 117.593C201.388 113.797 203.074 110.973 206.674 109.152C208.445 108.256 210.482 107.687 212.41 107.233C212.97 107.101 213.562 107.016 214.158 106.929C216.026 106.658 217.908 106.347 219.126 104.844C219.86 103.939 220.168 102.782 219.994 101.723C219.83 100.727 219.244 99.8128 218.18 99.2651C215.531 97.9023 212.239 99.2396 209.563 100.379C209.365 100.463 209.17 100.546 208.979 100.626C206.363 101.725 203.977 103.175 202.016 105.249C200.459 106.895 199.017 109.327 198.437 111.83C197.953 113.912 198.067 116.037 199.159 117.818Z" fill="black"/>
</svg>
