<svg width="150" height="118" viewBox="0 0 150 118" fill="none" xmlns="http://www.w3.org/2000/svg">
<path d="M34.1589 0.985892L23.5214 5.47777L32.7303 12.4442L34.1589 0.985892ZM27.9122 7.58609C6.82974 36.3223 -1.12615 58.1789 0.270307 74.6069C1.67735 91.1595 12.5391 101.922 28.2668 108.496C43.9628 115.057 64.6457 117.522 86.1103 117.488C107.594 117.454 129.951 114.916 149.049 111.406L148.688 109.439C129.682 112.931 107.447 115.454 86.1071 115.488C64.7477 115.522 44.3746 113.061 29.0381 106.651C13.7332 100.253 3.58595 89.9994 2.26312 74.4375C0.929705 58.751 8.52308 37.3953 29.5247 8.76915L27.9122 7.58609Z" fill="#33272A"/>
</svg>
