<svg width="449" height="672" viewBox="0 0 449 672" fill="none" xmlns="http://www.w3.org/2000/svg">
<path fill-rule="evenodd" clip-rule="evenodd" d="M14.938 660.505C4.34451 659.993 8.60529 641.453 9.36557 634.644C17.7528 609.776 15.7811 582.644 19.0798 556.578C21.1348 532.246 23.7752 507.989 25.9963 483.674C30.3585 434.319 61.6835 333.844 97.4311 317.685C101.934 297.917 120.533 279.463 144.065 279.463C160.115 260.455 179.433 247.077 204.211 249.778C214.451 250.245 224.381 261.11 234.192 263.208C239.685 263.966 288.438 262.016 298.204 267.819C305.006 271.313 311.147 277.771 309.147 285.992C305.955 295.953 315.873 285.175 336.562 295.807C378.749 321.157 353.54 355.07 352.423 356.121C378.749 392.768 401.76 422.5 412.406 467.294C419.306 500.551 418.53 534.882 424.311 568.309C426.352 579.899 429.484 591.093 432.872 602.349C436.545 617.079 438.331 653.793 440.355 654.121C444.042 655.038 438.224 662.613 434.317 662.619C325.99 680.597 215.956 663.363 107.047 660.548C76.3541 659.48 45.6288 659.234 14.938 660.505Z" fill="white"/>
<path fill-rule="evenodd" clip-rule="evenodd" d="M179.124 359.355C179.073 358.859 178.405 358.86 178.353 359.355L177.588 366.742C176.658 375.764 175.762 384.768 175.113 393.832C174.303 405.135 173.761 416.434 173.5 427.762C172.591 467.215 172.41 506.688 172.333 546.151C166.999 545.781 161.664 545.425 156.327 545.08C152.706 544.846 149.085 544.622 145.463 544.401L136.228 543.841L132.426 543.607C129.857 543.448 126.938 542.801 125.142 545.078C124.423 545.99 124.062 547.174 124.732 548.256C126.279 550.752 128.654 550.665 131.34 550.773C133.875 550.876 136.41 550.976 138.944 551.074C144.376 551.285 149.807 551.484 155.24 551.636C160.942 551.797 166.641 551.927 172.341 552.024C172.398 568.683 173.087 585.322 173.832 601.963L174.169 609.451C175.081 629.703 176.061 649.972 177.454 670.196C177.569 671.852 179.91 671.849 180.023 670.196C181.592 647.42 182.627 624.596 183.653 601.789C184.398 585.254 184.831 568.713 185.037 552.171C185.79 552.176 186.544 552.187 187.297 552.189C208.689 552.282 230.076 552.376 251.469 552.175C251.433 552.217 251.398 552.259 251.375 552.315C249.827 555.972 249.679 560.638 249.717 564.562C249.76 569.062 250.366 573.508 251.402 577.884C255.114 593.563 264.688 607.606 275.592 619.216L275.948 619.594C278.52 622.313 281.47 625.044 283.049 628.508C284.662 632.044 285.222 636.181 286.018 639.98L286.111 640.417L289.224 654.8C290.213 659.369 290.493 666.031 294.108 669.328C297.48 672.403 301.947 670.797 303.534 666.837C304.774 663.747 303.539 660.353 302.805 657.264L297.054 633.078C296.11 629.134 295.077 625.164 293.038 621.621C290.949 617.992 287.886 615.361 284.761 612.669C278.844 607.572 273.412 601.737 268.818 595.419C264.225 589.103 260.301 582.141 257.548 574.821C256.17 571.156 255.041 567.349 254.262 563.511C253.522 559.869 253.528 556.097 252.736 552.494C252.682 552.245 252.472 552.074 252.231 551.998C252.288 551.838 252.201 551.621 251.977 551.606L234.481 550.481C218.929 549.478 203.378 548.448 187.84 547.272L185.094 547.073C185.308 525.002 185.127 502.926 184.728 480.846C184.363 460.599 184.355 440.346 183.754 420.101C183.454 410.053 182.809 400.029 182.091 390.002C181.357 379.747 180.181 369.579 179.124 359.355ZM343.399 476.755C343.586 475.631 342.172 474.935 341.52 475.963C334.07 487.711 330.478 500.473 328.964 514.221C327.627 526.355 328.021 538.664 328.687 550.83C329.397 563.806 330.226 576.779 331.064 589.748L332.352 609.635L335.583 659.493C335.815 663.059 336.624 666.302 339.693 667.96C340.081 668.285 340.487 668.576 340.958 668.828C342.617 669.715 344.816 669.267 345.774 667.564L345.39 667.817C345.055 668.028 345.431 667.734 346.518 666.935L347.441 665.74C348.111 664.732 348.539 663.741 348.711 662.543C348.979 660.681 348.633 658.639 348.511 656.767L346.393 624.074C344.746 598.658 342.822 573.25 341.372 547.821C340.697 535.969 340.224 524.106 340.544 512.233C340.863 500.427 341.464 488.42 343.399 476.755ZM278.951 257.901L278.538 257.832C263.741 255.372 247.651 255.833 234.127 262.969C234.015 263.028 234.066 263.214 234.192 263.208L238.545 263.034C252.325 262.495 266.062 262.175 279.611 265.414L280.998 265.749C285.877 266.939 290.973 268.397 294.892 271.621C298.638 274.704 300.504 279.458 302.297 283.835L302.537 284.413C304.357 288.735 306.66 292.835 310.649 295.538C315.815 299.039 322.028 298.61 327.952 299.086C338.382 299.924 346.91 307.487 351.152 316.742C353.722 322.346 354.817 328.629 355.034 334.757C355.146 337.877 355.162 341.119 354.746 344.218C354.613 345.209 353.389 348.819 352.764 348.732C351.377 348.54 350.109 349.264 349.676 350.373C346.249 347.061 342.723 343.844 339.084 340.742C330.013 333.013 320.242 326.008 309.952 319.989C302.099 315.394 293.816 310.842 285.238 307.4C285.917 307.386 286.588 307.521 287.236 307.858C287.52 308.007 287.802 307.651 287.578 307.415C284.876 304.571 281.64 304.166 278.378 304.924C277.681 304.703 276.985 304.488 276.285 304.285C275.937 304.183 275.764 304.663 276.048 304.849L276.849 305.361C273.29 306.554 269.796 308.898 267.029 310.749C259.082 316.062 252.087 322.559 244.996 328.933L243.707 330.089C237.466 335.664 231.065 341.083 223.974 345.556C220.262 347.897 216.363 350.063 212.273 351.674C208.766 353.056 203.054 353.927 201.412 357.636C199.951 359.41 200.561 361.675 202.272 362.87C205.156 366.046 210.926 363.994 214.363 362.671C218.506 361.076 222.52 359.16 226.348 356.912C233.781 352.546 240.634 347.118 247.017 341.344C253.685 335.314 259.974 328.908 266.458 322.688C269.268 319.993 272.013 317.235 274.826 314.544L276.24 313.204C277.676 311.857 279.722 309.757 281.91 308.485C286.031 310.945 290.216 313.303 294.301 315.827C300.002 319.349 305.536 323.125 310.984 327.025C321.472 334.534 331.411 342.943 340.638 351.957C357.56 368.488 371.978 387.365 384.572 407.353L385.529 408.876C392.686 420.317 399.454 432.127 404.253 444.768C409.533 458.679 412.101 473.307 413.496 488.074C414.881 502.735 415.348 517.469 416.896 532.116C418.482 547.138 421.609 561.829 425.165 576.491L426.014 579.968C429.232 593.1 432.553 606.232 434.207 619.673C435.09 626.853 435.621 634.132 435.501 641.37C435.381 648.65 434.237 655.769 433.315 662.973C432.961 665.733 435.676 668.036 438.104 668.402C440.898 668.821 443.298 667.039 444.166 664.442C446.873 656.349 447.364 647.402 447.279 638.908C447.194 630.284 446.094 621.716 444.546 613.241C441.501 596.57 436.803 580.243 432.873 563.772C429.409 549.254 427.084 534.71 425.831 519.837C424.531 504.407 423.752 488.925 421.379 473.605C419.037 458.482 414.629 444.036 407.983 430.246C401.932 417.69 394.388 405.872 386.479 394.417C376.875 380.507 366.327 367.27 354.537 355.21C355.596 355.164 356.683 354.822 357.682 354.199C360.737 352.292 362.16 348.562 362.598 345.157C363.622 337.19 363.374 328.872 361.327 321.083C358.023 308.517 349.449 297.352 337.022 292.823C333.824 291.657 330.424 291.231 327.034 291.147C323.817 291.067 320.304 291.487 317.201 290.467C312.261 288.842 310.143 283.021 308.288 278.608L308.203 278.405C305.824 272.782 302.97 267.963 297.818 264.452C292.322 260.705 285.436 259.001 278.951 257.901ZM138.353 280.139C133.906 278.595 128.347 279.996 123.999 281.344C119.154 282.847 114.677 285.614 110.839 288.901C106.79 292.367 103.444 296.647 101.08 301.428L100.854 301.889C98.6942 306.324 96.2349 312.413 97.3237 317.285C97.3549 317.423 97.3905 317.557 97.4311 317.685C88.6087 322.031 80.461 327.473 73.3658 334.371C65.1041 342.403 58.1086 351.543 52.1887 361.417C28.6765 400.634 24.5383 447.733 21.7614 492.457L21.0688 503.797C19.5611 528.284 17.7963 552.713 13.2126 576.861L12.8782 578.605C7.97852 603.889 0.964722 629.366 1.67523 655.303C1.88846 663.075 13.3678 663.022 13.7005 655.303C14.9536 626.251 21.7297 598.201 26.3183 569.603C34.392 519.29 30.3466 467.419 41.7865 417.61C46.2758 398.062 53.2301 379.102 63.1609 361.653C68.0663 353.033 73.6788 344.704 80.2533 337.268C85.9096 330.87 91.7885 324.712 98.3986 319.333C100.511 321.45 104.731 320.371 105.834 317.285C106.592 315.164 106.371 312.685 106.857 310.463C107.308 308.402 107.93 306.358 108.759 304.416C110.411 300.547 112.836 296.831 115.636 293.7C118.66 290.315 122.136 287.503 126.025 285.18C129.941 282.843 134.223 282.144 138.353 280.436C138.492 280.378 138.505 280.192 138.353 280.139ZM121.077 549.032C121.071 548.828 120.83 548.731 120.682 548.868C119.123 550.303 118.181 552.363 117.034 554.128C115.711 556.164 114.321 558.158 112.864 560.101C109.945 563.992 106.695 567.66 103.419 571.254C100.372 574.596 97.1251 577.797 93.7567 580.815C90.1071 584.085 86.0174 587.002 82.7017 590.623C75.7831 598.178 74.6651 608.548 73.2054 618.284L73.0455 619.337C72.1553 625.116 71.3578 630.909 70.6386 636.711C70.2889 639.533 69.9402 642.358 69.6552 645.188L69.5681 646.084C69.3141 648.854 69.2455 651.664 70.8354 654.084C72.5374 656.673 76.4067 657.581 78.7073 655.098C82.66 650.833 81.9189 643.257 82.4331 637.77C82.8578 633.233 83.3397 628.701 83.8792 624.176L84.1537 621.914C84.7896 616.767 85.3059 611.517 86.4828 606.458C87.5204 602.004 89.4976 598.642 92.7415 595.415C96.0096 592.165 99.4054 589.13 102.422 585.63C105.621 581.917 108.507 577.936 111.108 573.781C113.332 570.227 115.115 566.36 116.748 562.497L117.019 561.853C118.598 558.086 121.201 553.182 121.077 549.032ZM64.0086 387.22C63.974 386.695 63.1979 386.687 63.1863 387.22C63.0882 391.739 62.994 396.258 62.9002 400.778C62.146 437.195 62.6108 473.698 58.959 509.99C57.2368 527.101 54.0652 543.961 50.3953 560.751C48.5174 569.342 46.5473 577.913 44.6754 586.505C42.8512 594.879 40.8948 603.294 39.4478 611.746C38.0257 620.052 36.7522 628.423 36.1806 636.837L36.1101 637.934C35.864 642.01 34.6893 648.004 36.9323 651.617C39.3628 655.53 44.016 655.6 46.6202 651.864C49.0655 648.357 48.4576 642.118 48.8896 637.934C49.3286 633.671 49.7929 629.405 50.3203 625.152C51.3491 616.856 52.7047 608.578 54.1145 600.339C57.0509 583.18 61.31 566.236 64.4537 549.104C67.6757 531.55 69.9658 513.869 70.0623 495.996C70.1582 477.971 68.2512 459.981 67.2887 441.995C66.3108 423.728 65.1992 405.474 64.0086 387.22ZM235.952 273.951C234.974 270.658 231.525 268.6 228.161 269.525C225.077 270.373 222.532 274.117 223.737 277.32C225.053 280.816 227.352 283.797 229.29 286.974C231.08 289.909 233.692 292.221 235.515 295.105L233.506 297.272C232.5 298.354 231.492 299.429 230.472 300.485L226.967 304.118C224.237 306.941 221.49 309.749 218.666 312.474C210.36 320.489 201.923 328.241 192.622 335.106C190.504 336.668 188.37 338.221 186.177 339.675L185.359 340.218C183.854 341.203 182.174 342.173 180.356 342.005C175.938 341.6 171.947 336.905 168.911 333.984L168.752 333.832C161.229 326.67 154.262 318.839 148.172 310.42C146.82 308.549 145.51 306.646 144.235 304.721C147.18 301.28 146.476 294.562 146.639 290.389C146.753 287.454 146.762 284.519 146.778 281.582L146.786 280.99C146.822 279.089 146.907 277.266 145.674 275.702C145.603 275.611 145.454 275.614 145.363 275.662C143.674 276.547 143.154 278.029 142.433 279.692L142.358 279.865C141.481 281.861 140.641 283.875 139.791 285.882C138.902 287.984 138.086 290.116 137.259 292.243C136.875 293.232 136.507 294.226 136.148 295.224C135.93 295.862 135.703 296.497 135.471 297.13L135.416 297.179C135.109 297.439 134.849 297.715 134.624 297.999C133.682 298.47 132.933 299.33 132.582 300.592C131.817 303.341 133.4 305.581 134.811 307.763C140.545 316.625 147.081 325.07 154.346 332.731C157.955 336.538 161.751 340.173 165.703 343.621L166.394 344.219C169.944 347.272 173.799 350.163 178.54 350.877C184.089 351.713 188.605 348.952 192.852 345.772L193.276 345.452C197.303 342.403 201.248 339.246 205.071 335.944C212.865 329.211 220.28 321.982 226.861 314.051C233.262 306.337 239.589 297.711 243.535 288.429C243.775 287.864 243.143 287.272 242.647 287.744C240.72 289.58 238.866 291.515 237.033 293.475C236.982 290.59 237.514 287.68 237.218 284.777C236.857 281.248 236.961 277.349 235.952 273.951Z" fill="black"/>
<path fill-rule="evenodd" clip-rule="evenodd" d="M98.9722 166.488C100.157 156.129 98.6238 134.477 98.5211 133.162C97.8717 124.846 101.787 92.0067 109.188 95.0325C121.603 85.2508 138.138 83.0909 153.6 82.0591C185.717 79.9156 219.884 84.8363 244.683 106.348C256.948 117.52 268.888 133.768 267.928 150.686C279.071 166.722 294.781 188.72 280.897 207.468C276.177 213.457 268.677 215.688 262.748 220.224C250.823 229.797 243.342 243.536 231.304 253.052C199.411 281.575 145.257 287.534 113.922 255.091C89.6918 231.594 93.6097 196.442 97.8717 166.488C100.737 146.349 96.6614 186.697 98.9722 166.488Z" fill="white"/>
<path fill-rule="evenodd" clip-rule="evenodd" d="M196.504 38.1304C187.914 36.4053 179.094 35.3319 170.323 35.655L169.647 35.6811C163.047 35.9437 154.689 36.5244 148.931 40.344C148.6 40.0132 148.067 39.8434 147.584 40.0729C140.742 43.3232 133.217 45.6732 126.013 48.0084C118.842 50.3321 111.403 51.8661 103.887 52.4844C101.059 52.7171 98.6394 55.7561 100.43 58.4817C100.856 59.1312 101.271 59.7873 101.684 60.4451C100.993 60.3733 100.302 60.2994 99.6105 60.2298C97.3363 60.002 95.0644 62.4177 95.1992 64.6215C95.2834 66.0076 95.4336 67.3773 95.6559 68.7305C94.7898 68.7124 93.9286 68.8417 93.0967 69.1916C88.8839 70.9622 89.1772 75.9562 89.4925 79.7559C89.9294 85.0287 91.9109 90.6136 95.5899 94.56C92.843 97.3996 90.8984 100.791 89.7385 104.818C88.8972 107.759 88.4289 110.892 88.66 113.953L88.7337 114.87C89.0195 118.192 89.5877 121.87 91.989 124.26C93.2216 125.492 94.7403 125.941 96.188 125.799C95.3125 133.455 94.7513 141.155 94.223 148.827L93.9753 152.495C92.797 170.228 91.9115 188.076 92.1431 205.838C92.3582 222.438 95.6537 238.549 105.883 252.027C115.199 264.3 128.575 273.347 143.707 276.787C151.862 278.643 160.187 278.775 168.441 277.592C172.442 277.017 176.469 276.135 180.267 274.744C184.47 273.199 187.491 270.927 190.319 267.52C191.657 265.905 191.013 262.465 188.349 262.789C184.321 263.275 180.643 263.861 176.781 265.047L176.228 265.22C172.381 266.447 168.397 267.362 164.375 267.75C156.137 268.544 147.774 267.745 139.883 265.259C127.035 261.206 115.969 252.175 108.876 240.828C100.457 227.377 99.5054 212.109 99.6271 196.643C99.7574 179.672 100.312 162.691 101.217 145.738L101.371 142.913C101.85 134.189 102.312 125.459 102.719 116.73C102.845 113.991 103.038 111.231 103.385 108.498C106.56 106.647 109.404 104.095 111.259 100.946C114.984 102.48 118.902 103.586 122.507 104.468C130.856 106.511 139.525 107.008 148.023 105.728C150.316 106.67 152.654 107.499 155.028 108.212C155.669 108.495 156.311 108.773 156.952 109.046C162.675 111.483 168.48 113.548 174.521 115.059L176.005 115.428C179.185 116.208 182.638 116.976 186.022 117.217C186.577 117.431 187.177 117.611 187.832 117.77C190.913 118.515 194.111 118.75 197.269 118.488C200.345 118.23 202.568 115.136 200.873 112.239C199.635 110.125 198.386 108.016 197.126 105.913C201.511 107.732 206.04 109.243 210.607 110.525C215.218 111.817 219.895 112.907 224.578 113.909C227.082 114.44 229.596 114.911 232.094 115.443C233.883 115.82 236.628 116.018 238.087 117.19C239.699 118.477 240.155 121.478 240.767 123.329C241.57 125.733 242.324 128.148 243.012 130.591C244.381 135.465 245.504 140.41 246.373 145.405C247.243 150.405 247.826 155.454 248.151 160.52C248.475 165.58 248.333 170.673 248.855 175.712C249.136 178.384 252.019 179.759 254.148 177.891C254.398 177.672 254.65 177.451 254.899 177.227L255.271 176.889C257.093 175.246 258.859 173.505 260.317 171.544C260.581 171.183 260.834 170.805 261.07 170.421C261.109 170.421 261.142 170.411 261.181 170.383L261.585 170.08C266.035 166.784 273.47 162.486 277.809 167.962C279.192 169.707 279.9 171.929 280.487 174.072L281.518 177.908C282.185 180.412 282.813 182.931 283.18 185.493C284.011 191.232 283.593 197.848 279.625 202.448C278.04 204.288 275.856 205.603 273.419 205.948C272.059 206.134 270.716 205.904 269.368 205.734C267.998 205.564 266.678 205.838 265.307 205.707C263.128 205.493 262.176 208.089 262.991 209.721C263.431 210.597 263.949 211.353 264.537 211.994C264.064 212.399 263.613 212.837 263.178 213.297C261.89 213.708 260.735 214.59 259.871 215.756C259.172 216.698 258.809 217.722 258.748 218.801C258.672 219.069 258.606 219.343 258.545 219.623L257.364 221.529C257.105 221.948 256.846 222.361 256.586 222.766C253.582 227.476 250.247 231.463 246.104 235.22C242.114 238.834 237.784 242.071 234.037 245.948L233.595 246.409C230.101 250.073 226.418 254.509 227.786 259.837C228.138 261.206 230.059 262.192 231.313 261.266C235.346 258.287 237.377 253.566 240.799 249.952C244.321 246.228 248.223 242.881 251.755 239.168C255.095 235.663 257.731 231.693 259.717 227.323C260.51 228.193 261.665 228.812 263.266 229.053C266.017 229.464 268.582 227.859 269.781 225.488C270.552 225.827 271.338 226.134 272.131 226.375C276.302 227.646 278.926 223.029 277.352 219.617C276.511 217.788 275.46 216.2 274.155 214.863C278.233 214.305 282.382 212.207 285.062 209.59C291.786 203.012 292.71 193.127 291.197 184.337C290.393 179.677 289.007 174.961 287.207 170.586C286.894 169.825 286.558 169.058 286.19 168.302C286.394 168.297 286.603 168.209 286.735 168.039C287.951 166.385 289.43 165.033 290.333 163.181C291.164 161.484 292.088 159.764 292.744 157.995C294.091 154.375 294.751 150.29 295.192 146.462C296.1 138.625 295.748 130.837 294.542 123.049C292.49 109.785 287.534 97.0918 280.231 85.9536C280.629 85.7457 281.01 85.4947 281.365 85.1979L281.54 85.0456L281.825 84.7893C283.909 82.9125 283.729 79.395 281.825 77.494L281.224 76.8941C280.463 76.1413 279.806 75.5448 278.576 74.7251C278.395 74.6041 278.209 74.4902 278.022 74.3839C278.665 73.1999 278.889 71.8154 278.44 70.288C276.878 64.967 269.185 65.1554 264.309 67.4758C258.915 62.6844 252.934 58.525 246.451 55.1569C231.01 47.1393 213.551 41.5477 196.504 38.1304ZM276.318 178.275C273.434 177.338 269.605 179.304 267.013 180.487C263.728 181.988 260.933 184.206 258.226 186.55C256.877 187.722 256.636 189.639 256.971 191.276C257.004 191.44 257.037 191.61 257.076 191.78C257.434 193.527 259.393 194.902 261.126 194.852C264.752 194.754 266.479 191.638 268.532 188.998C268.774 189.425 269.076 189.819 269.451 190.115L269.704 190.312C270.556 190.958 271.495 191.474 272.621 191.424C273.419 191.386 274.183 191.183 274.888 190.816C276.648 189.891 277.424 187.623 276.946 185.778C276.648 184.617 275.966 183.708 275.075 183.078L275.407 182.852C276.118 182.359 276.766 181.84 277.272 181.074L277.386 180.893H277.342C277.892 179.951 277.534 178.669 276.318 178.275Z" fill="black"/>
<path fill-rule="evenodd" clip-rule="evenodd" d="M99.8075 193.693C106.472 200.486 117.597 202.436 126.464 198.793C149.23 189.408 138.087 160.139 120.529 152.279C118.335 151.739 115.406 150.46 112.734 150.169C112.493 150.052 111.967 150.391 111.33 150.071C91.969 152.203 87.5602 181.853 99.8075 193.693ZM173.24 195.432C180.714 205.212 194.61 208.23 205.964 203.683C228.394 194.969 220.438 169.014 205.092 158.839C172.675 146.822 159.289 177.398 173.24 195.432ZM221.862 173.761C221.883 173.751 221.904 173.746 221.925 173.737C221.807 173.685 221.688 173.634 221.57 173.581C221.609 173.68 221.65 173.778 221.688 173.877C221.746 173.838 221.797 173.792 221.862 173.761ZM84.3765 163.189C86.2066 163.193 88.8501 163.489 90.3651 164.742C94.101 152.312 107.891 140.808 119.883 149.197C129.327 152.193 136.335 158.838 140.318 167.673C147.5 163.458 158.792 165.258 165.019 170.831C169.098 157.536 179.135 152.88 191.082 152.193C204.122 150.086 217.119 162.58 221.174 172.602C224.546 172.224 229.585 171.165 232.757 173.218C253.345 167.891 289.34 164.955 293.525 167.914C296.508 169.043 298.145 175.989 293.979 176.364C290.348 175.855 294.402 171.274 290.743 170.774C271.244 169.582 252.315 173.456 233.022 175.082C231.3 177.368 225.734 178.132 222.765 177.214C227.441 194.216 217.347 205.783 202.222 209.247C178.801 214.555 158.425 193.886 164.549 172.387C157.455 168.905 149.294 169.055 141.565 170.889C154.48 217.78 77.9306 215.676 89.8865 166.349C81.93 170.253 80.202 163.977 84.3765 163.189Z" fill="black"/>
<path fill-rule="evenodd" clip-rule="evenodd" d="M144.57 239.186C148.61 240.35 152.946 240.454 157.064 239.252C160.799 238.162 164.633 235.764 167.382 232.59C169.824 229.771 171.406 226.344 171.344 222.687C171.336 222.269 171.186 221.921 170.955 221.65C170.706 221.359 170.359 221.159 169.987 221.072C169.604 220.983 169.2 221.014 168.855 221.17C168.543 221.311 168.276 221.55 168.109 221.9C167.686 222.452 167.265 222.995 166.843 223.524C163.446 227.694 160.157 230.811 155.05 231.929C152.278 232.536 149.511 232.267 146.971 231.341C144.253 230.35 141.795 228.608 139.87 226.379C139 225.372 137.972 224.96 136.968 224.953C135.829 224.946 134.704 225.472 133.856 226.312C133.023 227.139 132.465 228.262 132.414 229.437C132.37 230.468 132.708 231.545 133.608 232.505C136.572 235.671 140.414 237.989 144.57 239.186ZM144.695 186.952C140.554 189.455 134.244 195.292 138.699 201.497C143.943 206.968 151.492 200.695 155.213 197.858C158.662 195.659 162.538 201.314 159.338 203.881C132.454 223.673 121.544 187.607 142.6 184.01C144.919 183.613 145.78 186.178 144.695 186.952ZM183.432 175.939C184.763 175.093 186.328 174.802 188.064 175.587C189.42 176.2 191.798 178.244 193.453 180.931C194.585 182.77 195.388 184.926 195.221 187.173C195.182 187.694 195.376 188.079 195.682 188.363C195.923 188.588 196.272 188.753 196.682 188.805C197.03 188.848 197.419 188.809 197.735 188.711C198.338 188.524 198.656 188.135 198.776 187.818C199.935 184.758 199.436 181.343 198.137 178.262C196.385 174.104 193.202 170.621 191.116 169.498C187.547 167.576 183.337 167.488 179.764 169.446C176.722 171.113 174.819 173.803 172.928 176.546C172.525 177.129 172.126 177.708 171.714 178.277C170.887 179.416 170.805 180.546 171.125 181.515C171.48 182.588 172.384 183.494 173.515 183.968C174.56 184.407 175.773 184.468 176.847 184.018C177.754 183.638 178.586 182.896 179.113 181.638C180 179.52 181.477 177.182 183.432 175.939ZM115.836 180.653C116.747 181.125 117.46 181.267 118.472 180.966C119.031 180.799 119.583 180.479 120.016 180.049C120.445 179.623 120.754 179.092 120.874 178.504C121.17 177.052 121.969 175.693 123.107 174.808C124.08 174.05 125.308 173.649 126.671 173.875C128.14 174.119 129.541 175.057 130.505 176.162C130.828 176.532 131.08 176.952 131.334 177.369C131.81 178.149 132.272 178.874 132.927 179.447C133.175 179.665 133.55 179.816 133.912 179.816C134.06 179.816 134.209 179.792 134.352 179.748C135.815 178.288 136.096 177.18 136.049 176.082C136 174.93 135.543 173.763 134.805 172.675C133.073 170.122 129.785 168.029 127.567 167.554C124.529 166.905 121.511 167.685 119.092 169.372C116.603 171.108 114.758 173.804 114.183 176.842C114.045 177.573 114.104 178.363 114.384 179.048C114.658 179.717 115.135 180.29 115.836 180.653ZM176.731 148.72C178.554 150.486 180.712 150.76 182.896 151.003C184.109 151.14 185.077 151.25 186.03 151.464C188.649 152.051 191.238 152.937 193.6 154.212C196.07 155.545 198.76 157.153 200.696 159.213C201.157 159.703 201.59 160.217 202.025 160.732C202.421 161.202 202.803 161.655 203.205 162.091C203.667 162.592 204.106 163.117 204.542 163.641C204.812 164.083 204.865 164.192 204.92 164.305C205.001 164.475 205.097 164.665 205.205 164.87C205.354 165.149 205.528 165.455 205.711 165.733C206.014 166.24 206.177 166.38 206.318 166.442C206.552 166.546 206.773 166.596 206.988 166.569C207.19 166.543 207.38 166.447 207.567 166.289C208.503 165.503 208.779 164.212 208.751 162.842C208.708 160.763 207.937 158.461 207.226 157.046C205.573 153.758 203.281 150.34 200.524 147.886C197.378 145.085 193.937 142.964 189.985 141.503C187.528 140.595 184.684 139.761 182.008 139.866C180.082 139.942 178.243 140.512 176.724 141.933C175.792 142.806 175.344 144.048 175.344 145.288C175.344 146.554 175.809 147.827 176.731 148.72ZM112.128 164.896C112.243 165.085 112.404 165.215 112.583 165.293C112.77 165.375 112.979 165.399 113.179 165.365C113.379 165.332 113.569 165.242 113.719 165.104C113.864 164.972 113.974 164.797 114.023 164.583C115.233 159.296 117.584 155.363 122.601 152.826C125.069 151.579 127.907 150.786 130.593 150.154C131.374 149.97 132.199 149.851 133.03 149.73C135.633 149.352 138.256 148.919 139.953 146.827C140.976 145.566 141.405 143.954 141.162 142.48C140.934 141.091 140.118 139.819 138.635 139.056C134.943 137.158 130.355 139.02 126.627 140.607C126.35 140.725 126.079 140.84 125.813 140.952C122.167 142.482 118.842 144.502 116.108 147.391C113.94 149.682 111.93 153.07 111.121 156.556C110.447 159.455 110.606 162.415 112.128 164.896Z" fill="black"/>
</svg>
