<svg xmlns="http://www.w3.org/2000/svg" viewBox="0 0 30 30" width="30px" height="30px">
  <path
    d="M 6 4 C 4.895 4 4 4.895 4 6 L 4 24 C 4 25.105 4.895 26 6 26 L 24 26 C 25.105 26 26 25.105 26 24 L 26 6 C 26 4.895 25.105 4 24 4 L 6 4 z M 17.5 11 L 20.056641 11 C 20.332641 11 20.556641 11.224 20.556641 11.5 C 20.556641 11.776 20.332641 12 20.056641 12 L 17.5 12 C 17.224 12 17 11.776 17 11.5 C 17 11.224 17.224 11 17.5 11 z M 8.9199219 11.384766 L 11.705078 11.384766 C 13.349078 11.384766 14.330078 12.189047 14.330078 13.498047 C 14.330078 14.396047 13.665875 15.179594 12.796875 15.308594 L 12.796875 15.414062 C 13.918875 15.496063 14.734375 16.341594 14.734375 17.433594 C 14.735375 18.918594 13.613688 19.859375 11.804688 19.859375 L 8.9199219 19.859375 C 8.4119219 19.859375 8 19.447453 8 18.939453 L 8 12.304688 C 8 11.796688 8.4119219 11.384766 8.9199219 11.384766 z M 9.7734375 12.740234 L 9.7734375 14.896484 L 11.105469 14.896484 C 12.063469 14.897484 12.585937 14.503266 12.585938 13.822266 C 12.585938 13.147266 12.099906 12.740234 11.253906 12.740234 L 9.7734375 12.740234 z M 18.962891 13.240234 C 20.871891 13.240234 21.998047 14.456719 21.998047 16.511719 L 21.998047 17.033203 L 17.554688 17.033203 L 17.554688 17.121094 C 17.577687 18.084094 18.142156 18.683594 19.035156 18.683594 C 19.710156 18.683594 20.173469 18.443625 20.355469 18.015625 L 21.947266 18.015625 C 21.689266 19.237625 20.572328 20 18.986328 20 C 17.013328 20 15.851563 18.754344 15.851562 16.652344 C 15.851562 14.544344 17.036891 13.240234 18.962891 13.240234 z M 18.970703 14.550781 C 18.177703 14.550781 17.618547 15.101406 17.560547 15.941406 L 20.320312 15.941406 C 20.284313 15.084406 19.768703 14.550781 18.970703 14.550781 z M 9.7734375 16.095703 L 9.7734375 18.503906 L 11.353516 18.503906 C 12.375516 18.503906 12.927734 18.07325 12.927734 17.28125 C 12.927734 16.50525 12.3575 16.095703 11.3125 16.095703 L 9.7734375 16.095703 z" />
</svg>